<svg xmlns="http://www.w3.org/2000/svg" viewBox="0 0 1024 1024"><defs><style>.cls-1{isolation:isolate;}.cls-2{fill:#f8fbe0;}.cls-3,.cls-8{fill:#3e4d03;}.cls-10,.cls-4{fill:#869926;}.cls-4,.cls-5,.cls-6,.cls-7{stroke:#334003;}.cls-10,.cls-11,.cls-12,.cls-13,.cls-4,.cls-5,.cls-6,.cls-7{stroke-linecap:round;stroke-linejoin:round;stroke-width:2px;}.cls-11,.cls-5{fill:#b3cc33;}.cls-12,.cls-6{fill:#adba50;}.cls-13,.cls-7{fill:#dced66;}.cls-8{stroke:#6a7d0a;stroke-miterlimit:10;}.cls-9{fill:#fff;}.cls-10,.cls-11,.cls-12,.cls-13{stroke:#f8fbe0;}.cls-14{opacity:0.19;mix-blend-mode:darken;}</style></defs><g class="cls-1"><g id="Layer_1_copy" data-name="Layer 1 copy"><ellipse class="cls-2" cx="767.9" cy="256" rx="169.26" ry="169.16" transform="translate(510.93 1023.58) rotate(-89.93)"/><path class="cls-3" d="M767.9,94.24c89.29,0,161.67,72.42,161.67,161.76S857.19,417.76,767.9,417.76,606.24,345.34,606.24,256,678.62,94.24,767.9,94.24m0-15a176.11,176.11,0,1,0,68.78,13.9,175.53,175.53,0,0,0-68.78-13.9Z"/><polygon class="cls-3" points="814.83 368.18 887.82 345.06 889.18 349.88 814.83 368.18"/><polygon class="cls-3" points="890.96 319.81 890.99 347.69 886.01 347.25 890.96 319.81"/><polygon class="cls-3" points="903.65 320.75 890.67 348.7 886.33 346.24 903.65 320.75"/><polygon class="cls-3" points="880.26 367.28 886.19 346.51 890.81 348.43 880.26 367.28"/><polygon class="cls-3" points="882.06 319.81 890.93 346.9 886.07 348.04 882.06 319.81"/><polygon class="cls-3" points="824.82 330.82 897.06 305.43 898.56 310.2 824.82 330.82"/><polygon class="cls-3" points="908.57 283.53 900.1 308.83 895.52 306.81 908.57 283.53"/><polygon class="cls-3" points="914.77 285.93 899.79 309.35 895.83 306.29 914.77 285.93"/><polygon class="cls-3" points="896.15 325.27 895.32 307.58 900.3 308.05 896.15 325.27"/><polygon class="cls-3" points="900.58 283.51 900.29 308.1 895.33 307.53 900.58 283.51"/><path class="cls-4" d="M814.83,405.11a80.13,80.13,0,0,1-29.91,11l-.12,0c-4.67.49-9.41.79-14.19.88h-.07l-3,0c-89.08,0-161.3-72.25-161.3-161.38A161.34,161.34,0,0,1,614,206.08a135.42,135.42,0,0,0,98.56,128.06A141,141,0,0,0,814.83,405.11Z"/><path class="cls-5" d="M853.1,153.26q0,1.19-.06,2.37a61.67,61.67,0,0,0-65.92-22.35,137.13,137.13,0,0,0-15.79,6.94A141.25,141.25,0,0,0,699.56,302a139.3,139.3,0,0,0,13,32.14A135.42,135.42,0,0,1,614,206.08,161.37,161.37,0,0,1,767.54,94.24,158,158,0,0,1,802,97.93c22.58,5.06,38.2,18.37,43.35,27.05a55,55,0,0,1,7.74,28.28Z"/><path class="cls-6" d="M853.32,336.28a80.73,80.73,0,0,1-38.49,68.83A141.16,141.16,0,0,1,698.7,232.72a98.56,98.56,0,0,0,148.93,73.72A80.59,80.59,0,0,1,853.32,336.28Z"/><path class="cls-7" d="M847.63,306.44A98.56,98.56,0,0,1,698.7,232.72a141.35,141.35,0,0,1,72.63-92.5,137.13,137.13,0,0,1,15.79-6.94A61.67,61.67,0,0,1,853,155.63c-1.26,27.06-23.85,52.55-47.36,52.55-3.74,0-9.24-.11-11.4.48a26.07,26.07,0,0,0-4.23,48.78h0a49.1,49.1,0,0,0,8.36,2.31A81.07,81.07,0,0,1,847.63,306.44Z"/><ellipse class="cls-8" cx="803.6" cy="183.24" rx="6.93" ry="6.93"/><path class="cls-3" d="M828.31,197.88q9,8.73,17.62,17.84c5.73,6.08,11.32,12.29,16.65,18.74a191.45,191.45,0,0,1,14.88,20.21,73.33,73.33,0,0,1,5.82,11.15l.57,1.46.48,1.51a26.73,26.73,0,0,1,.78,3,15.55,15.55,0,0,1,0,6.23,15.2,15.2,0,0,0-.6-6.08,27.49,27.49,0,0,0-1.06-2.87l-.61-1.4-.71-1.36a70.56,70.56,0,0,0-6.78-10.2A187.37,187.37,0,0,0,858.73,238c-5.87-5.75-12-11.25-18.22-16.61s-12.6-10.57-19.06-15.61Z"/><path class="cls-3" d="M821.51,206.09a5.38,5.38,0,1,1,7.58-.51A5.36,5.36,0,0,1,821.51,206.09Z"/><circle class="cls-9" cx="806.07" cy="180.13" r="2.36"/><circle class="cls-2" cx="256" cy="768" r="169.26"/><path class="cls-3" d="M256,606.24A161.76,161.76,0,1,1,94.24,768,161.76,161.76,0,0,1,256,606.24m0-15a176.29,176.29,0,1,0,68.81,13.9A175.68,175.68,0,0,0,256,591.24Z"/><path class="cls-4" d="M303,917.11a80.16,80.16,0,0,1-29.93,11l-.12,0c-4.67.49-9.41.79-14.19.88h-.07c-1,0-2,0-3,0A161.5,161.5,0,0,1,102,718.08a135.44,135.44,0,0,0,98.62,128.06A141.08,141.08,0,0,0,303,917.11Z"/><path class="cls-5" d="M341.24,665.26q0,1.18-.06,2.37a61.72,61.72,0,0,0-65.95-22.35,136.52,136.52,0,0,0-15.8,6.94,140.95,140.95,0,0,0-58.82,193.92A135.44,135.44,0,0,1,102,718.08,161.46,161.46,0,0,1,255.63,606.24a158.07,158.07,0,0,1,34.49,3.69C312.72,615,328.35,628.3,333.5,637a55,55,0,0,1,7.74,28.28Z"/><path class="cls-6" d="M341.46,848.28A80.71,80.71,0,0,1,303,917.11a141.15,141.15,0,0,1-116.2-172.39,98.64,98.64,0,0,0,149,73.72A80.59,80.59,0,0,1,341.46,848.28Z"/><path class="cls-7" d="M335.77,818.44a98.64,98.64,0,0,1-149-73.72,141.39,141.39,0,0,1,72.68-92.5,136.52,136.52,0,0,1,15.8-6.94,61.72,61.72,0,0,1,65.95,22.35c-1.26,27.06-23.86,52.55-47.38,52.55-3.75,0-9.25-.11-11.41.48a26.07,26.07,0,0,0-4.23,48.78h0a49.1,49.1,0,0,0,8.36,2.31A81.07,81.07,0,0,1,335.77,818.44Z"/><circle class="cls-8" cx="291.72" cy="695.24" r="6.93"/><path class="cls-3" d="M316.43,709.88q9,8.73,17.64,17.83c5.73,6.09,11.32,12.3,16.65,18.75a190,190,0,0,1,14.89,20.2,73,73,0,0,1,5.83,11.15l.58,1.47.48,1.51a28.35,28.35,0,0,1,.77,3.05,15.56,15.56,0,0,1,0,6.23,15.38,15.38,0,0,0-.6-6.08,29,29,0,0,0-1.06-2.87l-.62-1.4-.71-1.36a70.56,70.56,0,0,0-6.78-10.2A186.3,186.3,0,0,0,346.87,750c-5.87-5.75-12-11.25-18.22-16.61S316,722.82,309.58,717.78Z"/><path class="cls-3" d="M309.64,718.09a5.37,5.37,0,1,1,7.58-.51A5.36,5.36,0,0,1,309.64,718.09Z"/><circle class="cls-9" cx="294.19" cy="692.13" r="2.36"/><circle cx="768" cy="768" r="169.26"/><path class="cls-3" d="M768,606.24A161.76,161.76,0,1,1,606.24,768,161.76,161.76,0,0,1,768,606.24m0-15a176.29,176.29,0,1,0,68.81,13.9A175.68,175.68,0,0,0,768,591.24Z"/><path class="cls-2" d="M768,609.24a158.76,158.76,0,1,1-112.26,46.5A157.75,157.75,0,0,1,768,609.24m0-3A161.76,161.76,0,1,0,929.76,768,161.76,161.76,0,0,0,768,606.24Z"/><polygon class="cls-2" points="814.95 880.18 887.99 857.06 889.34 861.88 814.95 880.18"/><polygon class="cls-2" points="891.13 831.81 891.16 859.69 886.18 859.25 891.13 831.81"/><polygon class="cls-2" points="903.83 832.75 890.84 860.7 886.49 858.24 903.83 832.75"/><polygon class="cls-2" points="880.42 879.28 886.36 858.51 890.98 860.43 880.42 879.28"/><polygon class="cls-2" points="882.23 831.81 891.1 858.9 886.23 860.04 882.23 831.81"/><polygon class="cls-2" points="824.95 842.82 897.23 817.43 898.73 822.2 824.95 842.82"/><polygon class="cls-2" points="908.75 795.53 900.27 820.83 895.7 818.8 908.75 795.53"/><polygon class="cls-2" points="914.95 797.93 899.96 821.35 896.01 818.28 914.95 797.93"/><polygon class="cls-2" points="896.32 837.27 895.5 819.58 900.47 820.05 896.32 837.27"/><polygon class="cls-2" points="900.76 795.51 900.47 820.1 895.5 819.53 900.76 795.51"/><path class="cls-10" d="M815,917.11a80.16,80.16,0,0,1-29.93,11l-.12,0c-4.67.49-9.41.79-14.19.88h-.07c-1,0-2,0-3,0A161.5,161.5,0,0,1,614,718.08a135.44,135.44,0,0,0,98.62,128.06A141.08,141.08,0,0,0,815,917.11Z"/><path class="cls-11" d="M853.24,665.26q0,1.18-.06,2.37a61.72,61.72,0,0,0-65.95-22.35,136.52,136.52,0,0,0-15.8,6.94,140.95,140.95,0,0,0-58.82,193.92A135.44,135.44,0,0,1,614,718.08,161.46,161.46,0,0,1,767.63,606.24a158.07,158.07,0,0,1,34.49,3.69C824.72,615,840.35,628.3,845.5,637a55,55,0,0,1,7.74,28.28Z"/><path class="cls-12" d="M853.46,848.28A80.71,80.71,0,0,1,815,917.11a141.15,141.15,0,0,1-116.2-172.39,98.64,98.64,0,0,0,149,73.72A80.59,80.59,0,0,1,853.46,848.28Z"/><path class="cls-13" d="M847.77,818.44a98.64,98.64,0,0,1-149-73.72,141.39,141.39,0,0,1,72.68-92.5,136.52,136.52,0,0,1,15.8-6.94,61.72,61.72,0,0,1,65.95,22.35c-1.26,27.06-23.86,52.55-47.38,52.55-3.75,0-9.25-.11-11.41.48a26.07,26.07,0,0,0-4.23,48.78h0a49.1,49.1,0,0,0,8.36,2.31A81.07,81.07,0,0,1,847.77,818.44Z"/><circle class="cls-8" cx="803.72" cy="695.24" r="6.93"/><path class="cls-2" d="M828.43,709.88q9,8.73,17.64,17.83c5.73,6.09,11.32,12.3,16.65,18.75a190,190,0,0,1,14.89,20.2,73,73,0,0,1,5.83,11.15l.58,1.47.48,1.51a28.35,28.35,0,0,1,.77,3.05,15.56,15.56,0,0,1,0,6.23,15.38,15.38,0,0,0-.6-6.08,29,29,0,0,0-1.06-2.87l-.62-1.4-.71-1.36a70.56,70.56,0,0,0-6.78-10.2A186.3,186.3,0,0,0,858.87,750c-5.87-5.75-12-11.25-18.22-16.61S828,722.82,821.58,717.78Z"/><circle class="cls-2" cx="825.18" cy="714.04" r="5.38" transform="translate(-46.03 56.95) rotate(-3.85)"/><circle class="cls-9" cx="806.19" cy="692.13" r="2.36"/><circle class="cls-2" cx="256" cy="256" r="169.26"/><path class="cls-3" d="M256,94.24A161.76,161.76,0,1,1,94.24,256,161.76,161.76,0,0,1,256,94.24m0-15a176.29,176.29,0,1,0,68.81,13.9A175.68,175.68,0,0,0,256,79.24Z"/><polygon class="cls-3" points="302.95 368.18 375.99 345.06 377.34 349.88 302.95 368.18"/><polygon class="cls-3" points="379.13 319.81 379.16 347.69 374.18 347.25 379.13 319.81"/><polygon class="cls-3" points="391.83 320.75 378.84 348.7 374.49 346.24 391.83 320.75"/><polygon class="cls-3" points="368.42 367.28 374.36 346.51 378.98 348.43 368.42 367.28"/><polygon class="cls-3" points="370.23 319.81 379.1 346.9 374.23 348.04 370.23 319.81"/><polygon class="cls-3" points="312.95 330.82 385.23 305.43 386.73 310.2 312.95 330.82"/><polygon class="cls-3" points="396.75 283.53 388.27 308.83 383.7 306.8 396.75 283.53"/><polygon class="cls-3" points="402.95 285.93 387.96 309.35 384.01 306.29 402.95 285.93"/><polygon class="cls-3" points="384.32 325.27 383.5 307.58 388.47 308.05 384.32 325.27"/><polygon class="cls-3" points="388.76 283.51 388.47 308.1 383.5 307.53 388.76 283.51"/><path class="cls-4" d="M303,405.11a80.16,80.16,0,0,1-29.93,11l-.12,0c-4.67.49-9.41.79-14.19.88h-.07c-1,0-2,0-3,0A161.5,161.5,0,0,1,102,206.08a135.44,135.44,0,0,0,98.62,128.06A141.08,141.08,0,0,0,303,405.11Z"/><path class="cls-5" d="M341.24,153.26q0,1.19-.06,2.37a61.72,61.72,0,0,0-65.95-22.35,136.52,136.52,0,0,0-15.8,6.94,140.95,140.95,0,0,0-58.82,193.92A135.44,135.44,0,0,1,102,206.08,161.46,161.46,0,0,1,255.63,94.24a158.07,158.07,0,0,1,34.49,3.69C312.72,103,328.35,116.3,333.5,125a55,55,0,0,1,7.74,28.28Z"/><path class="cls-6" d="M341.46,336.28A80.71,80.71,0,0,1,303,405.11a141.15,141.15,0,0,1-116.2-172.39,98.64,98.64,0,0,0,149,73.72A80.59,80.59,0,0,1,341.46,336.28Z"/><path class="cls-7" d="M335.77,306.44a98.64,98.64,0,0,1-149-73.72,141.39,141.39,0,0,1,72.68-92.5,136.52,136.52,0,0,1,15.8-6.94,61.72,61.72,0,0,1,65.95,22.35c-1.26,27.06-23.86,52.55-47.38,52.55-3.75,0-9.25-.11-11.41.48a26.07,26.07,0,0,0-4.23,48.78h0a49.1,49.1,0,0,0,8.36,2.31A81.07,81.07,0,0,1,335.77,306.44Z"/><circle class="cls-8" cx="291.72" cy="183.24" r="6.93"/><path class="cls-3" d="M316.43,197.88q9,8.73,17.64,17.83c5.73,6.09,11.32,12.3,16.65,18.75a190,190,0,0,1,14.89,20.2,73,73,0,0,1,5.83,11.15l.58,1.47.48,1.51a28.35,28.35,0,0,1,.77,3,15.56,15.56,0,0,1,0,6.23,15.38,15.38,0,0,0-.6-6.08,29,29,0,0,0-1.06-2.87l-.62-1.4-.71-1.36a70.56,70.56,0,0,0-6.78-10.2A186.3,186.3,0,0,0,346.87,238c-5.87-5.75-12-11.25-18.22-16.61S316,210.82,309.58,205.78Z"/><path class="cls-3" d="M309.64,206.09a5.37,5.37,0,1,1,7.58-.51A5.36,5.36,0,0,1,309.64,206.09Z"/><circle class="cls-9" cx="294.19" cy="180.13" r="2.36"/></g><g id="Layer_1" data-name="Layer 1" class="cls-14"><path class="cls-3" d="M797.74,98.77c1.64,0,3.31.07,5,.22a53.89,53.89,0,0,1,19.82,5.74,54.51,54.51,0,0,1,22.1,20.77,54.2,54.2,0,0,1,7.59,27.37v.07c0,.11,0,.22,0,.33a54.5,54.5,0,0,1-46.59,53.93,56.77,56.77,0,0,1-7.91.57c-1.15,0-2.26,0-3.29-.1a54.55,54.55,0,0,1-48.32-36.87,54.75,54.75,0,0,1-2.89-17.53,54.44,54.44,0,0,1,54.5-54.5m0-1a55.46,55.46,0,0,0-55.5,55.5,53.89,53.89,0,0,0,.4,6.63,54.52,54.52,0,0,0,2.54,11.23,55.52,55.52,0,0,0,49.21,37.53c1.11.07,2.23.11,3.35.11a54.88,54.88,0,0,0,8-.59,55.51,55.51,0,0,0,47.45-54.91c0-.13,0-.28,0-.4A55.28,55.28,0,0,0,845.5,125,55.74,55.74,0,0,0,823,103.84,55.07,55.07,0,0,0,802.81,98c-1.67-.15-3.36-.22-5.07-.22Z"/><path class="cls-3" d="M768,95.25a159.66,159.66,0,0,1,54.66,9.53A160.8,160.8,0,0,1,855.36,121c3.83,2.49,7.56,5.14,11.08,7.88a162.33,162.33,0,0,1,45.38,55.19A160.93,160.93,0,0,1,900.3,347.35,160.78,160.78,0,1,1,768,95.25m0-1a161.76,161.76,0,1,0,99,33.87q-5.38-4.2-11.14-7.93A161.34,161.34,0,0,0,823,103.84,159.16,159.16,0,0,0,802.81,98,162.34,162.34,0,0,0,768,94.25Z"/><path class="cls-3" d="M835.88,125.66c3.2,0,6.41.11,9.55.32a141.22,141.22,0,0,1,14.38,1.71h0l.83.15c2,.35,4,.76,6,1.2a162.33,162.33,0,0,1,45.21,55.06,160.84,160.84,0,0,1-84.37,221.3c-4.2-.25-8.36-.68-12.35-1.27a140.06,140.06,0,0,1-41.6-263.84c3.8-1.9,7.73-3.64,11.69-5.17a138.1,138.1,0,0,1,33.18-8.38,141.92,141.92,0,0,1,17.51-1.08m0-1a142.53,142.53,0,0,0-17.63,1.09,140,140,0,0,0-33.42,8.43q-6,2.35-11.78,5.22A141,141,0,0,0,815,405.11c4.16.63,8.39,1.05,12.66,1.3a161.78,161.78,0,0,0,39.44-278.29c-2.06-.47-4.14-.9-6.24-1.27h0A142.86,142.86,0,0,0,845.5,125q-4.77-.33-9.62-.33Z"/><path class="cls-3" d="M772.72,256.54A79.74,79.74,0,1,1,693,336.28a79.83,79.83,0,0,1,79.73-79.74m0-1a80.74,80.74,0,1,0,80.74,80.74,80.73,80.73,0,0,0-80.74-80.74Z"/><path class="cls-3" d="M801.18,208.77a25.06,25.06,0,1,1-25.06,25,25.08,25.08,0,0,1,25.06-25m0-1a26.06,26.06,0,1,0,26.06,26,26.05,26.05,0,0,0-26.06-26Z"/><path class="cls-3" d="M804.87,132a63.44,63.44,0,1,1-63.44,63.44A63.51,63.51,0,0,1,804.87,132m0-1a64.44,64.44,0,1,0,64.44,64.44A64.44,64.44,0,0,0,804.87,131Z"/><path class="cls-3" d="M796.79,124.4A97.62,97.62,0,1,1,699.17,222a97.73,97.73,0,0,1,97.62-97.61m0-1A98.62,98.62,0,1,0,895.41,222a98.61,98.61,0,0,0-98.62-98.61Z"/><path class="cls-3" d="M768,95.25A162.72,162.72,0,0,1,802.6,99l.06,0h.06a53.89,53.89,0,0,1,19.82,5.74l.06,0,.06,0a161,161,0,0,1,32.57,16.16c1.69,2.17,3.29,4.35,4.76,6.48a133.54,133.54,0,0,1,19.55,42.71,135.14,135.14,0,0,1,4.25,33.66,133.49,133.49,0,0,1-39.69,95.37A135.35,135.35,0,0,1,823.37,316a134.63,134.63,0,0,1-110.5,17.16A132.41,132.41,0,0,1,693,325.84a134.48,134.48,0,0,1-78-119.32A160.85,160.85,0,0,1,768,95.25m0-1A161.83,161.83,0,0,0,614,206.38a135.42,135.42,0,0,0,78.57,120.36,132.67,132.67,0,0,0,20,7.41,135.4,135.4,0,0,0,148.21-207.3c-1.56-2.26-3.2-4.48-4.9-6.65A160.86,160.86,0,0,0,823,103.84,55.06,55.06,0,0,0,802.81,98,162.34,162.34,0,0,0,768,94.25Z"/></g></g></svg>