<svg xmlns="http://www.w3.org/2000/svg" viewBox="0 0 512 512"><defs><style>.cls-1{isolation:isolate;}.cls-2{fill:#f8fbe0;}.cls-3,.cls-8{fill:#3e4d03;}.cls-4{fill:#869926;}.cls-4,.cls-5,.cls-6,.cls-7{stroke:#334003;stroke-linecap:round;stroke-linejoin:round;stroke-width:2px;}.cls-5{fill:#b3cc33;}.cls-6{fill:#adba50;}.cls-7{fill:#dced66;}.cls-8{stroke:#6a7d0a;stroke-miterlimit:10;}.cls-9{fill:#fff;}.cls-10{opacity:0.19;mix-blend-mode:darken;}</style></defs><g class="cls-1"><g id="Layer_1_copy" data-name="Layer 1 copy"><ellipse class="cls-2" cx="255.9" cy="256" rx="169.26" ry="169.16" transform="translate(-0.42 511.58) rotate(-89.93)"/><path class="cls-3" d="M255.9,94.24c89.29,0,161.67,72.42,161.67,161.76S345.19,417.76,255.9,417.76,94.24,345.34,94.24,256,166.62,94.24,255.9,94.24m0-15a176.11,176.11,0,1,0,68.78,13.9,175.53,175.53,0,0,0-68.78-13.9Z"/><polygon class="cls-3" points="302.83 368.18 375.82 345.06 377.18 349.88 302.83 368.18"/><polygon class="cls-3" points="378.96 319.81 378.99 347.69 374.01 347.25 378.96 319.81"/><polygon class="cls-3" points="391.65 320.75 378.68 348.7 374.32 346.24 391.65 320.75"/><polygon class="cls-3" points="368.26 367.28 374.19 346.51 378.81 348.43 368.26 367.28"/><polygon class="cls-3" points="370.06 319.81 378.94 346.9 374.06 348.04 370.06 319.81"/><polygon class="cls-3" points="312.82 330.82 385.06 305.43 386.56 310.2 312.82 330.82"/><polygon class="cls-3" points="396.57 283.53 388.1 308.83 383.52 306.81 396.57 283.53"/><polygon class="cls-3" points="402.77 285.93 387.79 309.35 383.83 306.29 402.77 285.93"/><polygon class="cls-3" points="384.15 325.27 383.32 307.58 388.3 308.05 384.15 325.27"/><polygon class="cls-3" points="388.58 283.51 388.29 308.1 383.33 307.53 388.58 283.51"/><path class="cls-4" d="M302.83,405.11a80.13,80.13,0,0,1-29.91,11l-.12,0c-4.67.49-9.41.79-14.19.88h-.07l-3,0c-89.08,0-161.3-72.25-161.3-161.38A161.34,161.34,0,0,1,102,206.08a135.42,135.42,0,0,0,98.56,128.06A141,141,0,0,0,302.83,405.11Z"/><path class="cls-5" d="M341.1,153.26q0,1.19-.06,2.37a61.67,61.67,0,0,0-65.92-22.35,137.13,137.13,0,0,0-15.79,6.94A141.25,141.25,0,0,0,187.56,302a139.3,139.3,0,0,0,13,32.14A135.42,135.42,0,0,1,102,206.08,161.37,161.37,0,0,1,255.54,94.24,158,158,0,0,1,290,97.93c22.58,5.06,38.2,18.37,43.35,27.05a55,55,0,0,1,7.74,28.28Z"/><path class="cls-6" d="M341.32,336.28a80.73,80.73,0,0,1-38.49,68.83A141.16,141.16,0,0,1,186.7,232.72a98.56,98.56,0,0,0,148.93,73.72A80.59,80.59,0,0,1,341.32,336.28Z"/><path class="cls-7" d="M335.63,306.44A98.56,98.56,0,0,1,186.7,232.72a141.35,141.35,0,0,1,72.63-92.5,137.13,137.13,0,0,1,15.79-6.94A61.67,61.67,0,0,1,341,155.63c-1.26,27.06-23.85,52.55-47.36,52.55-3.74,0-9.24-.11-11.4.48a26.07,26.07,0,0,0-4.23,48.78h0a49.1,49.1,0,0,0,8.36,2.31A81.07,81.07,0,0,1,335.63,306.44Z"/><ellipse class="cls-8" cx="291.6" cy="183.24" rx="6.93" ry="6.93"/><path class="cls-3" d="M316.31,197.88q9,8.73,17.62,17.84c5.73,6.08,11.32,12.29,16.65,18.74a191.45,191.45,0,0,1,14.88,20.21,73.33,73.33,0,0,1,5.82,11.15l.57,1.46.48,1.51a26.73,26.73,0,0,1,.78,3,15.55,15.55,0,0,1,0,6.23,15.2,15.2,0,0,0-.6-6.08,27.49,27.49,0,0,0-1.06-2.87l-.61-1.4-.71-1.36a70.56,70.56,0,0,0-6.78-10.2A187.37,187.37,0,0,0,346.73,238c-5.87-5.75-12-11.25-18.22-16.61s-12.6-10.57-19.06-15.61Z"/><path class="cls-3" d="M309.51,206.09a5.38,5.38,0,1,1,7.58-.51A5.36,5.36,0,0,1,309.51,206.09Z"/><circle class="cls-9" cx="294.07" cy="180.13" r="2.36"/></g><g id="Layer_1" data-name="Layer 1" class="cls-10"><path class="cls-3" d="M285.74,98.77c1.64,0,3.31.07,5,.22a53.89,53.89,0,0,1,19.82,5.74,54.51,54.51,0,0,1,22.1,20.77,54.2,54.2,0,0,1,7.59,27.37v.07c0,.11,0,.22,0,.33a54.5,54.5,0,0,1-46.59,53.93,56.77,56.77,0,0,1-7.91.57c-1.15,0-2.26,0-3.29-.1a54.55,54.55,0,0,1-48.32-36.87,54.75,54.75,0,0,1-2.89-17.53,54.44,54.44,0,0,1,54.5-54.5m0-1a55.46,55.46,0,0,0-55.5,55.5,53.89,53.89,0,0,0,.4,6.63,54.52,54.52,0,0,0,2.54,11.23,55.52,55.52,0,0,0,49.21,37.53c1.11.07,2.23.11,3.35.11a54.88,54.88,0,0,0,8.05-.59,55.51,55.51,0,0,0,47.45-54.91c0-.13,0-.28,0-.4A55.28,55.28,0,0,0,333.5,125,55.74,55.74,0,0,0,311,103.84,55.07,55.07,0,0,0,290.81,98c-1.67-.15-3.36-.22-5.07-.22Z"/><path class="cls-3" d="M256,95.25a159.66,159.66,0,0,1,54.66,9.53A160.8,160.8,0,0,1,343.36,121c3.83,2.49,7.56,5.14,11.08,7.88a162.33,162.33,0,0,1,45.38,55.19A160.93,160.93,0,0,1,388.3,347.35,160.78,160.78,0,1,1,256,95.25m0-1a161.76,161.76,0,1,0,99.05,33.87q-5.39-4.2-11.14-7.93A161.34,161.34,0,0,0,311,103.84,159.16,159.16,0,0,0,290.81,98,162.34,162.34,0,0,0,256,94.25Z"/><path class="cls-3" d="M323.88,125.66c3.2,0,6.41.11,9.55.32a141.22,141.22,0,0,1,14.38,1.71h0l.83.15c2,.35,4,.76,6,1.2a162.33,162.33,0,0,1,45.21,55.06,160.84,160.84,0,0,1-84.37,221.3c-4.2-.25-8.36-.68-12.35-1.27a140.06,140.06,0,0,1-41.6-263.84c3.8-1.9,7.73-3.64,11.69-5.17a138.1,138.1,0,0,1,33.18-8.38,141.92,141.92,0,0,1,17.51-1.08m0-1a142.53,142.53,0,0,0-17.63,1.09,140,140,0,0,0-33.42,8.43q-6,2.35-11.78,5.22A141,141,0,0,0,303,405.11c4.16.63,8.39,1.05,12.66,1.3a161.78,161.78,0,0,0,39.44-278.29c-2.06-.47-4.14-.9-6.24-1.27h0A142.86,142.86,0,0,0,333.5,125q-4.77-.33-9.62-.33Z"/><path class="cls-3" d="M260.72,256.54A79.74,79.74,0,1,1,181,336.28a79.83,79.83,0,0,1,79.73-79.74m0-1a80.74,80.74,0,1,0,80.74,80.74,80.73,80.73,0,0,0-80.74-80.74Z"/><path class="cls-3" d="M289.18,208.77a25.06,25.06,0,1,1-25.06,25,25.08,25.08,0,0,1,25.06-25m0-1a26.06,26.06,0,1,0,26.06,26,26.05,26.05,0,0,0-26.06-26Z"/><path class="cls-3" d="M292.87,132a63.44,63.44,0,1,1-63.44,63.44A63.51,63.51,0,0,1,292.87,132m0-1a64.44,64.44,0,1,0,64.44,64.44A64.44,64.44,0,0,0,292.87,131Z"/><path class="cls-3" d="M284.79,124.4A97.62,97.62,0,1,1,187.17,222a97.73,97.73,0,0,1,97.62-97.61m0-1A98.62,98.62,0,1,0,383.41,222a98.61,98.61,0,0,0-98.62-98.61Z"/><path class="cls-3" d="M256,95.25A162.72,162.72,0,0,1,290.6,99l.06,0h.06a53.89,53.89,0,0,1,19.82,5.74l.06,0,.06,0a161,161,0,0,1,32.57,16.16c1.69,2.17,3.29,4.35,4.76,6.48a133.54,133.54,0,0,1,19.55,42.71,135.14,135.14,0,0,1,4.25,33.66,133.49,133.49,0,0,1-39.69,95.37A135.35,135.35,0,0,1,311.37,316a134.63,134.63,0,0,1-110.5,17.16A132.41,132.41,0,0,1,181,325.84a134.48,134.48,0,0,1-78-119.32A160.85,160.85,0,0,1,256,95.25m0-1A161.83,161.83,0,0,0,102,206.38a135.42,135.42,0,0,0,78.57,120.36,132.67,132.67,0,0,0,20,7.41,135.4,135.4,0,0,0,148.21-207.3c-1.56-2.26-3.2-4.48-4.9-6.65A160.86,160.86,0,0,0,311,103.84,55.06,55.06,0,0,0,290.81,98,162.34,162.34,0,0,0,256,94.25Z"/></g></g></svg>