<svg xmlns="http://www.w3.org/2000/svg" viewBox="0 0 512 512"><defs><style>.cls-1{isolation:isolate;}.cls-2{fill:#f8fbe0;}.cls-3,.cls-8{fill:#3e4d03;}.cls-4{fill:#869926;}.cls-4,.cls-5,.cls-6,.cls-7{stroke:#334003;stroke-linecap:round;stroke-linejoin:round;stroke-width:2px;}.cls-5{fill:#b3cc33;}.cls-6{fill:#adba50;}.cls-7{fill:#dced66;}.cls-8{stroke:#6a7d0a;stroke-miterlimit:10;}.cls-9{fill:#fff;}.cls-10{opacity:0.19;mix-blend-mode:darken;}</style></defs><g class="cls-1"><g id="Layer_1_copy" data-name="Layer 1 copy"><circle class="cls-2" cx="256" cy="256" r="169.26"/><path class="cls-3" d="M256,94.24A161.76,161.76,0,1,1,94.24,256,161.76,161.76,0,0,1,256,94.24m0-15a176.29,176.29,0,1,0,68.81,13.9A175.68,175.68,0,0,0,256,79.24Z"/><polygon class="cls-3" points="302.95 368.18 375.99 345.06 377.34 349.88 302.95 368.18"/><polygon class="cls-3" points="379.13 319.81 379.16 347.69 374.18 347.25 379.13 319.81"/><polygon class="cls-3" points="391.83 320.75 378.84 348.7 374.49 346.24 391.83 320.75"/><polygon class="cls-3" points="368.42 367.28 374.36 346.51 378.98 348.43 368.42 367.28"/><polygon class="cls-3" points="370.23 319.81 379.1 346.9 374.23 348.04 370.23 319.81"/><polygon class="cls-3" points="312.95 330.82 385.23 305.43 386.73 310.2 312.95 330.82"/><polygon class="cls-3" points="396.75 283.53 388.27 308.83 383.7 306.8 396.75 283.53"/><polygon class="cls-3" points="402.95 285.93 387.96 309.35 384.01 306.29 402.95 285.93"/><polygon class="cls-3" points="384.32 325.27 383.5 307.58 388.47 308.05 384.32 325.27"/><polygon class="cls-3" points="388.76 283.51 388.47 308.1 383.5 307.53 388.76 283.51"/><path class="cls-4" d="M303,405.11a80.16,80.16,0,0,1-29.93,11l-.12,0c-4.67.49-9.41.79-14.19.88h-.07c-1,0-2,0-3,0A161.5,161.5,0,0,1,102,206.08a135.44,135.44,0,0,0,98.62,128.06A141.08,141.08,0,0,0,303,405.11Z"/><path class="cls-5" d="M341.24,153.26q0,1.19-.06,2.37a61.72,61.72,0,0,0-65.95-22.35,136.52,136.52,0,0,0-15.8,6.94,140.95,140.95,0,0,0-58.82,193.92A135.44,135.44,0,0,1,102,206.08,161.46,161.46,0,0,1,255.63,94.24a158.07,158.07,0,0,1,34.49,3.69C312.72,103,328.35,116.3,333.5,125a55,55,0,0,1,7.74,28.28Z"/><path class="cls-6" d="M341.46,336.28A80.71,80.71,0,0,1,303,405.11a141.15,141.15,0,0,1-116.2-172.39,98.64,98.64,0,0,0,149,73.72A80.59,80.59,0,0,1,341.46,336.28Z"/><path class="cls-7" d="M335.77,306.44a98.64,98.64,0,0,1-149-73.72,141.39,141.39,0,0,1,72.68-92.5,136.52,136.52,0,0,1,15.8-6.94,61.72,61.72,0,0,1,65.95,22.35c-1.26,27.06-23.86,52.55-47.38,52.55-3.75,0-9.25-.11-11.41.48a26.07,26.07,0,0,0-4.23,48.78h0a49.1,49.1,0,0,0,8.36,2.31A81.07,81.07,0,0,1,335.77,306.44Z"/><circle class="cls-8" cx="291.72" cy="183.24" r="6.93"/><path class="cls-3" d="M316.43,197.88q9,8.73,17.64,17.83c5.73,6.09,11.32,12.3,16.65,18.75a190,190,0,0,1,14.89,20.2,73,73,0,0,1,5.83,11.15l.58,1.47.48,1.51a28.35,28.35,0,0,1,.77,3,15.56,15.56,0,0,1,0,6.23,15.38,15.38,0,0,0-.6-6.08,29,29,0,0,0-1.06-2.87l-.62-1.4-.71-1.36a70.56,70.56,0,0,0-6.78-10.2A186.3,186.3,0,0,0,346.87,238c-5.87-5.75-12-11.25-18.22-16.61S316,210.82,309.58,205.78Z"/><path class="cls-3" d="M309.64,206.09a5.37,5.37,0,1,1,7.58-.51A5.36,5.36,0,0,1,309.64,206.09Z"/><circle class="cls-9" cx="294.19" cy="180.13" r="2.36"/></g></g></svg>